<?xml version="1.0" encoding="utf-8"?>
<!-- Generator: Adobe Illustrator 22.0.0, SVG Export Plug-In . SVG Version: 6.00 Build 0)  -->
<svg version="1.1" id="Layer_1" xmlns="http://www.w3.org/2000/svg" xmlns:xlink="http://www.w3.org/1999/xlink" x="0px" y="0px"
	 viewBox="0 0 95 125" style="enable-background:new 0 0 95 125;" xml:space="preserve">
<style type="text/css">
	.st0{fill:#ECBF75;}
	.st1{fill:#8F5041;}
	.st2{fill:#85C782;}
	.st3{fill:#E4995A;}
	.st4{fill:#75252C;}
	.st5{fill:#6AA567;}
</style>
<g>
	<polyline class="st0" points="51.5,42 43.5,42 43.5,83 51.5,83 51.5,42 	"/>
	<path class="st1" d="M90.4,125c2.5,0,4.6-2.2,4.6-4.9c0.3-14.3-7.7-25.9-24.9-22.9c-0.9-8.4-10.7-17-22.6-17l0,0
		c-11.9,0-21.7,8.6-22.6,17c-17.2-3-25.2,8.5-24.9,22.9c0,2.7,2.1,4.9,4.6,4.9H90.4"/>
	<path class="st2" d="M79.9,15.4c0-0.8-0.6-1.4-1.3-1.3c-5.3,0.2-23.1,0.7-31,15.5C43.7,3.1,16.7,0.6,9.6,0C8.7-0.1,7.9,0.6,7.9,1.5
		c0,7.9-0.6,39.7,35.6,41.4v6.9h4h4l0,0C78,49.2,79.6,21.8,79.9,15.4"/>
	<g>
		<path class="st3" d="M51.5,49.9h-4v30.4l0,0c1.4,0,2.7,0.1,4,0.3V49.9"/>
		<path class="st4" d="M47.5,80.2L47.5,80.2v44.7h43c2.5-0.1,4.5-2.2,4.5-4.9c0-0.2,0-0.4,0-0.6v-0.2c0-12.4-6.4-22.5-19.6-22.5
			c-1.7,0-3.4,0.2-5.3,0.5l0,0l0,0l0,0l0,0l0,0l0,0l0,0l0,0l0,0l0,0l0,0l0,0l0,0l0,0l0,0l0,0l0,0l0,0l0,0l0,0l0,0l0,0l0,0l0,0l0,0
			l0,0l0,0c-0.9-7.4-8.6-14.9-18.6-16.5l0,0l0,0C50.2,80.4,48.9,80.2,47.5,80.2"/>
		<path class="st5" d="M78.6,14L78.6,14c-0.2,0-0.4,0-0.7,0c-5.9,0.2-22.7,1.2-30.4,15.4l0,0l0,0v20.4h4l0,0l0,0l0,0
			c26.5-0.6,28.1-28,28.4-34.4c0,0,0,0,0-0.1C79.9,14.6,79.3,14,78.6,14"/>
	</g>
</g>
</svg>
