<?xml version="1.0" encoding="utf-8"?>
<!-- Generator: Adobe Illustrator 22.0.0, SVG Export Plug-In . SVG Version: 6.00 Build 0)  -->
<svg version="1.1" xmlns="http://www.w3.org/2000/svg" xmlns:xlink="http://www.w3.org/1999/xlink" x="0px" y="0px"
	 viewBox="0 0 299.5 125.6" style="enable-background:new 0 0 299.5 125.6;" xml:space="preserve">
<style type="text/css">
	.st0{display:none;fill:#85C782;}
	.st1{fill:#ECBF75;}
	.st2{fill:#8F5041;}
	.st3{fill:#85C782;}
	.st4{opacity:0.8;clip-path:url(#SVGID_2_);fill:#3D043D;}
	.st5{display:none;}
	.st6{display:inline;fill:none;}
	.st7{display:inline;}
	.st8{font-family:'VarelaRound-Regular';}
	.st9{font-size:60px;}
	.st10{fill:#E4995A;}
	.st11{fill:#75252C;}
	.st12{fill:#6AA567;}
</style>
<symbol  id="sprout" viewBox="-47.5 -42 95 125">
	<g>
		<rect x="-4" y="33.1" class="st0" width="8" height="10"/>
		<path class="st0" d="M31,68.9c-7-0.3-36.2-1.1-34.9-35.3c34.1-5.1,36,26.9,36.3,33.9C32.4,68.3,31.8,69,31,68.9z"/>
		<path class="st0" d="M-37.9,83c8.2-0.7,42.6-3.9,37.9-43c-40.2-0.5-39.6,33.3-39.6,41.5C-39.6,82.4-38.8,83.1-37.9,83z"/>
		<rect x="-4" y="0" class="st1" width="8" height="41"/>
		<path class="st2" d="M42.9-42c2.5,0,4.6,2.2,4.6,4.9c0.3,14.3-7.7,25.9-24.9,22.9C21.7-5.9,11.9,2.7,0,2.7h0
			c-11.9,0-21.7-8.6-22.6-17c-17.2,3-25.2-8.5-24.9-22.9c0-2.7,2.1-4.9,4.6-4.9H42.9z"/>
		<path class="st3" d="M32.4,67.6c0,0.8-0.6,1.4-1.3,1.3C25.8,68.7,8,68.2,0,53.5C-3.8,79.9-30.8,82.4-37.9,83
			c-0.9,0.1-1.6-0.6-1.6-1.5c0-7.9-0.6-39.8,35.6-41.5v-6.9h8v0C30.5,33.8,32.1,61.1,32.4,67.6z"/>
	</g>
	<g>
		<defs>
			<path id="SVGID_1_" d="M22.6-14.3C21.8-6.9,14,0.7,4,2.4v30.7v0c26.5,0.6,28.1,28,28.4,34.4c0,0.8-0.6,1.4-1.3,1.3
				C25.8,68.7,8,68.2,0,53.5C-3.8,79.9-30.8,82.4-37.9,83c-0.9,0.1-1.6-0.6-1.6-1.5c0-7.9-0.6-39.8,35.6-41.5V2.4
				c-10-1.6-17.8-9.2-18.6-16.7c-17.2,3-25.2-8.5-24.9-22.9c0-2.7,2.1-4.9,4.6-4.9h85.8c2.5,0,4.6,2.2,4.6,4.9
				C47.8-22.8,39.8-11.3,22.6-14.3z"/>
		</defs>
		<clipPath id="SVGID_2_">
			<use xlink:href="#SVGID_1_"  style="overflow:visible;"/>
		</clipPath>
		<rect x="0" y="-42" class="st4" width="47.5" height="111.9"/>
	</g>
</symbol>
<g id="paths" class="st5">
	
		<use xlink:href="#sprout"  width="95" height="125" x="-47.5" y="-42" transform="matrix(1 0 0 -1 47.508 83.5508)" style="display:inline;overflow:visible;"/>
	<rect x="106.8" y="12.2" class="st6" width="192.7" height="113.4"/>
	<text transform="matrix(1 0 0 1 106.7969 56.3172)" class="st7"><tspan x="0" y="0" class="st3 st8 st9">Kafka </tspan><tspan x="0" y="55" class="st3 st8 st9">Sprou</tspan></text>
</g>
<g id="expanded">
	<g>
		<polyline class="st1" points="51.5,42.6 43.5,42.6 43.5,83.6 51.5,83.6 51.5,42.6 		"/>
		<path class="st2" d="M90.4,125.6c2.5,0,4.6-2.2,4.6-4.9c0.3-14.3-7.7-25.9-24.9-22.9c-0.9-8.4-10.7-17-22.6-17h0
			c-11.9,0-21.7,8.6-22.6,17c-17.2-3-25.2,8.5-24.9,22.9c0,2.7,2.1,4.9,4.6,4.9H90.4"/>
		<path class="st3" d="M79.9,16c0-0.8-0.6-1.4-1.3-1.3c-5.3,0.2-23.1,0.7-31,15.5C43.7,3.7,16.7,1.2,9.6,0.6
			C8.7,0.5,7.9,1.2,7.9,2.1C7.9,10,7.3,41.8,43.5,43.5v6.9h4h4v0C78,49.8,79.6,22.4,79.9,16"/>
		<g>
			<path class="st10" d="M51.5,50.5h-4v30.4h0c1.4,0,2.7,0.1,4,0.3V50.5"/>
			<path class="st11" d="M47.5,80.8L47.5,80.8l0,44.7h43c2.5-0.1,4.5-2.2,4.5-4.9c0-0.2,0-0.4,0-0.6v-0.2c0-12.4-6.4-22.5-19.6-22.5
				c-1.7,0-3.4,0.2-5.3,0.5c0,0,0,0,0,0c0,0,0,0,0,0c0,0,0,0,0,0c0,0,0,0,0,0c0,0,0,0,0,0c0,0,0,0,0,0c0,0,0,0,0,0c0,0,0,0,0,0
				c0,0,0,0,0,0c0,0,0,0,0,0c0,0,0,0,0,0c0,0,0,0,0,0c0,0,0,0,0,0c0,0,0,0,0,0c0,0,0,0,0,0c0,0,0,0,0,0c0,0,0,0,0,0c0,0,0,0,0,0
				c0,0,0,0,0,0c0,0,0,0,0,0c0,0,0,0,0,0c0,0,0,0,0,0c0,0,0,0,0,0c0,0,0,0,0,0c0,0,0,0,0,0c0,0,0,0,0,0c0,0,0,0,0,0
				c-0.9-7.4-8.6-14.9-18.6-16.5v0l0,0C50.2,81,48.9,80.8,47.5,80.8"/>
			<path class="st12" d="M78.6,14.6C78.6,14.6,78.6,14.6,78.6,14.6c-0.2,0-0.4,0-0.7,0c-5.9,0.2-22.7,1.2-30.4,15.4l0,0c0,0,0,0,0,0
				v20.4h4h0v0l0,0C78,49.8,79.6,22.4,79.9,16c0,0,0,0,0-0.1C79.9,15.2,79.3,14.6,78.6,14.6"/>
		</g>
	</g>
	<g>
		<path class="st3" d="M113.4,55.8c-0.5-0.5-0.8-1.2-0.8-1.9v-37c0-0.8,0.3-1.4,0.8-2c0.5-0.5,1.2-0.8,1.9-0.8c0.8,0,1.4,0.3,2,0.8
			c0.5,0.5,0.8,1.2,0.8,2V36l20.5-20.9c0.6-0.6,1.2-1,2-1c0.7,0,1.3,0.2,1.8,0.7c0.5,0.5,0.8,1,0.8,1.7c0,0.8-0.2,1.4-0.7,1.9
			l-13.9,13.8l15.9,20c0.4,0.6,0.7,1.1,0.7,1.7c0,0.7-0.2,1.3-0.7,1.9c-0.5,0.5-1.2,0.8-1.9,0.8c-0.9,0-1.6-0.4-2.2-1.1l-15.5-19.7
			l-6.8,6.9v11.2c0,0.8-0.3,1.4-0.8,1.9c-0.5,0.5-1.2,0.8-2,0.8C114.6,56.6,113.9,56.4,113.4,55.8z"/>
		<path class="st3" d="M154.6,55.8c-1.5-0.7-2.7-1.8-3.6-3.1c-0.9-1.4-1.3-3-1.3-4.8c0-3,1.2-5.3,3.5-7.1c2.3-1.8,5.8-2.6,10.3-2.6
			h7.3v-0.5c0-2.6-0.7-4.5-1.9-5.7c-1.3-1.2-3.3-1.7-6.1-1.7c-1.5,0-2.9,0.1-4,0.4c-1.2,0.2-2.5,0.6-3.9,1.1
			c-0.3,0.1-0.6,0.1-0.8,0.1c-0.6,0-1.1-0.2-1.6-0.7c-0.4-0.4-0.7-1-0.7-1.6c0-1.1,0.5-1.8,1.6-2.3c3.4-1.4,6.9-2.2,10.4-2.2
			c2.8,0,5.1,0.6,7,1.7c1.9,1.1,3.3,2.6,4.2,4.4c0.9,1.8,1.3,3.7,1.3,5.8v17c0,0.8-0.3,1.4-0.8,1.9c-0.5,0.5-1.2,0.8-2,0.8
			c-0.8,0-1.4-0.3-1.9-0.8c-0.5-0.5-0.8-1.2-0.8-1.9v-1.6c-3,3-6.7,4.6-11.3,4.6C157.8,56.9,156.1,56.6,154.6,55.8z M166.7,50.8
			c1.6-0.9,3-1.9,4.1-3.2v-5h-6.5c-6,0-9.1,1.6-9.1,4.7c0,1.4,0.5,2.6,1.5,3.5c1,0.9,2.6,1.3,4.9,1.3
			C163.3,52.1,165,51.7,166.7,50.8z"/>
		<path class="st3" d="M187.7,55.8c-0.5-0.5-0.8-1.2-0.8-1.9V30.4h-3.5c-0.6,0-1.2-0.2-1.7-0.7c-0.5-0.5-0.7-1-0.7-1.6
			c0-0.7,0.2-1.2,0.7-1.7c0.5-0.4,1-0.7,1.7-0.7h3.5v-3.5c0-2.4,0.4-4.4,1.3-5.9c0.9-1.5,2-2.7,3.4-3.4c1.4-0.7,2.8-1,4.3-1
			c1.9,0,3.6,0.4,5.2,1.2c0.4,0.2,0.7,0.5,1,0.9c0.3,0.4,0.4,0.8,0.4,1.2c0,0.6-0.2,1.1-0.7,1.6c-0.4,0.5-1,0.7-1.6,0.7
			c-0.4,0-0.9-0.1-1.4-0.2c-1-0.1-1.5-0.2-1.6-0.2c-1.6,0-2.9,0.4-3.7,1.1c-0.8,0.8-1.2,2.1-1.2,4.1v3.3h7.5c0.7,0,1.2,0.2,1.7,0.7
			c0.4,0.4,0.7,1,0.7,1.7c0,0.6-0.2,1.2-0.7,1.6c-0.4,0.5-1,0.7-1.7,0.7h-7.5v23.5c0,0.8-0.3,1.4-0.8,1.9s-1.2,0.8-2,0.8
			S188.3,56.4,187.7,55.8z"/>
		<path class="st3" d="M208.4,55.8c-0.5-0.5-0.8-1.2-0.8-1.9V15c0-0.8,0.3-1.4,0.8-2s1.2-0.8,1.9-0.8c0.8,0,1.4,0.3,1.9,0.8
			s0.8,1.2,0.8,2v24.5l14.3-13.2c0.6-0.5,1.2-0.8,1.8-0.8c0.9,0,1.6,0.3,2,0.8c0.4,0.5,0.6,1.1,0.6,1.9c0,0.7-0.3,1.4-1,2l-8.6,7.7
			L233,52.4c0.4,0.5,0.6,1.1,0.6,1.6c0,0.8-0.3,1.4-0.8,1.9c-0.5,0.5-1.2,0.7-2,0.7c-0.4,0-0.8-0.1-1.2-0.3c-0.4-0.2-0.7-0.5-1-0.8
			l-10.3-14l-5.2,4.7v7.7c0,0.8-0.3,1.4-0.8,1.9s-1.2,0.8-1.9,0.8C209.5,56.6,208.9,56.4,208.4,55.8z"/>
		<path class="st3" d="M242.6,55.8c-1.5-0.7-2.7-1.8-3.6-3.1c-0.9-1.4-1.3-3-1.3-4.8c0-3,1.2-5.3,3.5-7.1c2.3-1.8,5.8-2.6,10.3-2.6
			h7.3v-0.5c0-2.6-0.7-4.5-2-5.7c-1.3-1.2-3.3-1.7-6.1-1.7c-1.5,0-2.9,0.1-4,0.4c-1.2,0.2-2.5,0.6-3.9,1.1c-0.3,0.1-0.6,0.1-0.8,0.1
			c-0.6,0-1.1-0.2-1.6-0.7c-0.4-0.4-0.7-1-0.7-1.6c0-1.1,0.5-1.8,1.6-2.3c3.4-1.4,6.9-2.2,10.4-2.2c2.8,0,5.1,0.6,7,1.7
			c1.9,1.1,3.3,2.6,4.2,4.4c0.9,1.8,1.4,3.7,1.4,5.8v17c0,0.8-0.3,1.4-0.8,1.9s-1.2,0.8-2,0.8s-1.4-0.3-1.9-0.8s-0.8-1.2-0.8-1.9
			v-1.6c-3,3-6.7,4.6-11.3,4.6C245.7,56.9,244.1,56.6,242.6,55.8z M254.6,50.8c1.6-0.9,3-1.9,4.1-3.2v-5h-6.5c-6,0-9.1,1.6-9.1,4.7
			c0,1.4,0.5,2.6,1.5,3.5c1,0.9,2.6,1.3,4.9,1.3C251.3,52.1,253,51.7,254.6,50.8z"/>
		<path class="st3" d="M111.5,109c-0.5-0.2-0.9-0.5-1.2-1c-0.3-0.5-0.5-1-0.5-1.5c0-0.7,0.2-1.3,0.7-1.8c0.5-0.5,1-0.8,1.8-0.8
			c0.4,0,0.8,0.1,1.1,0.2c3.7,1.6,7.6,2.5,11.8,2.5c7,0,10.5-2.3,10.5-6.9c0-1.2-0.5-2.2-1.4-3c-0.9-0.8-2-1.4-3.3-1.9
			c-1.3-0.5-3.2-1-5.6-1.7c-3.2-0.8-5.9-1.7-7.9-2.4c-2-0.8-3.7-2-5.2-3.5c-1.4-1.6-2.2-3.6-2.2-6.2c0-2.3,0.6-4.3,1.8-6.2
			c1.2-1.9,3-3.3,5.3-4.4c2.3-1.1,5.1-1.6,8.4-1.6c4.4,0,8.4,0.7,11.9,2c1.1,0.4,1.7,1.2,1.7,2.4c0,0.6-0.2,1.2-0.7,1.7
			c-0.4,0.5-1,0.8-1.7,0.8c-0.2,0-0.6-0.1-1-0.2c-3.1-1.1-6.3-1.6-9.7-1.6c-3.2,0-5.7,0.6-7.7,1.8s-3,2.9-3,5c0,1.4,0.5,2.6,1.4,3.5
			c0.9,0.9,2.1,1.6,3.5,2.1c1.4,0.5,3.3,1,5.8,1.6c3.2,0.8,5.7,1.5,7.6,2.3c1.9,0.8,3.6,1.9,5,3.5c1.4,1.6,2.1,3.8,2.1,6.5
			c0,2.2-0.6,4.3-1.9,6c-1.3,1.8-3.1,3.2-5.4,4.2c-2.3,1-5,1.5-8,1.5C120.7,111.9,116,111,111.5,109z"/>
		<path class="st3" d="M148.8,124.6c-0.5-0.5-0.8-1.2-0.8-2V83.1c0-0.8,0.3-1.4,0.8-1.9c0.5-0.5,1.2-0.8,1.9-0.8
			c0.8,0,1.4,0.3,2,0.8c0.5,0.5,0.8,1.2,0.8,1.9v1.6c2.9-3,6.3-4.6,10.3-4.6c2.5,0,4.8,0.6,7,1.9c2.2,1.3,4,3.1,5.4,5.5
			c1.4,2.4,2.1,5.3,2.1,8.5s-0.7,6.1-2.1,8.5c-1.4,2.4-3.2,4.3-5.4,5.5c-2.2,1.3-4.6,1.9-7,1.9c-3.9,0-7.3-1.5-10.3-4.6v15.3
			c0,0.8-0.3,1.5-0.8,2c-0.5,0.5-1.2,0.8-2,0.8C150,125.4,149.3,125.1,148.8,124.6z M170.1,104c1.8-1.9,2.7-4.5,2.7-8
			c0-3.4-0.9-6.1-2.7-8c-1.8-1.9-4.2-2.8-7.1-2.8c-1.8,0-3.6,0.4-5.2,1.2c-1.6,0.8-3.1,1.9-4.3,3.3v12.6c1.2,1.4,2.7,2.5,4.3,3.3
			c1.6,0.8,3.3,1.2,5.2,1.2C165.9,106.8,168.3,105.9,170.1,104z"/>
		<path class="st3" d="M186.7,110.8c-0.5-0.5-0.8-1.2-0.8-1.9V83.2c0-0.8,0.3-1.4,0.8-2s1.2-0.8,1.9-0.8c0.8,0,1.4,0.3,1.9,0.8
			s0.8,1.2,0.8,2v2.6c2.8-3.8,5.9-5.6,9.4-5.6h0.3c0.8,0,1.4,0.3,1.9,0.8c0.5,0.5,0.8,1.2,0.8,1.9c0,0.8-0.3,1.4-0.8,1.9
			c-0.5,0.5-1.2,0.7-2,0.7h-0.3c-1.9,0-3.7,0.5-5.3,1.4c-1.6,0.9-2.9,2.2-4,3.9v18.2c0,0.8-0.3,1.4-0.8,1.9
			c-0.5,0.5-1.2,0.8-1.9,0.8C187.8,111.6,187.2,111.4,186.7,110.8z"/>
		<path class="st3" d="M213.4,109.9c-2.3-1.3-4.1-3.2-5.4-5.6c-1.3-2.4-1.9-5.2-1.9-8.3s0.6-5.9,1.9-8.3c1.3-2.4,3-4.3,5.4-5.6
			c2.3-1.3,5-2,8.1-2c3,0,5.7,0.7,8,2c2.3,1.3,4.1,3.2,5.4,5.6c1.3,2.4,1.9,5.2,1.9,8.3s-0.6,5.9-1.9,8.3c-1.3,2.4-3.1,4.3-5.4,5.6
			c-2.3,1.3-5,2-8,2C218.4,111.9,215.7,111.3,213.4,109.9z M226.2,105.8c1.5-0.8,2.7-2,3.7-3.6c1-1.6,1.5-3.7,1.5-6.2
			c0-2.5-0.5-4.5-1.5-6.2c-1-1.6-2.2-2.8-3.7-3.6c-1.5-0.7-3.1-1.1-4.7-1.1c-1.7,0-3.3,0.4-4.8,1.1c-1.5,0.7-2.7,1.9-3.7,3.6
			c-1,1.6-1.4,3.7-1.4,6.2c0,2.5,0.5,4.6,1.4,6.2c1,1.6,2.2,2.8,3.7,3.6s3.1,1.1,4.8,1.1C223.1,106.9,224.7,106.6,226.2,105.8z"/>
		<path class="st3" d="M249.1,110.4c-1.6-1-2.9-2.5-3.7-4.3c-0.9-1.8-1.3-3.8-1.3-5.9v-17c0-0.8,0.3-1.4,0.8-1.9
			c0.5-0.5,1.2-0.8,2-0.8c0.8,0,1.4,0.3,1.9,0.8c0.5,0.5,0.8,1.2,0.8,1.9v16.4c0,4.9,2.2,7.3,6.6,7.3c2,0,3.8-0.5,5.4-1.6
			c1.6-1,3.1-2.4,4.5-4.2v-18c0-0.8,0.3-1.4,0.8-1.9c0.5-0.5,1.2-0.8,1.9-0.8s1.4,0.3,1.9,0.8c0.5,0.5,0.8,1.2,0.8,1.9v25.7
			c0,0.8-0.3,1.4-0.8,2s-1.2,0.8-1.9,0.8s-1.4-0.3-1.9-0.8s-0.8-1.2-0.8-2v-2.5c-1.5,1.7-3.2,3-4.9,4c-1.8,1-3.8,1.5-6.2,1.5
			C252.7,111.9,250.8,111.4,249.1,110.4z"/>
		<path class="st3" d="M282.8,104V85.4h-4.3c-0.3,0-0.6-0.1-0.8-0.3c-0.2-0.2-0.3-0.5-0.3-0.8c0-0.4,0.2-0.7,0.5-1l8.2-8
			c0.4-0.4,0.7-0.5,1-0.5c0.3,0,0.6,0.1,0.8,0.4c0.2,0.2,0.3,0.5,0.3,0.8v4.8h6.8c0.7,0,1.2,0.2,1.7,0.7c0.4,0.4,0.7,1,0.7,1.7
			c0,0.6-0.2,1.2-0.7,1.6c-0.4,0.5-1,0.7-1.7,0.7h-6.8v18.1c0,1.6,0.4,2.5,1.1,3c0.7,0.4,1.7,0.6,2.8,0.6c0.8,0,1.6-0.1,2.4-0.4
			c0.2,0,0.3-0.1,0.5-0.1c0.2,0,0.4-0.1,0.7-0.1c0.6,0,1.1,0.2,1.5,0.6c0.4,0.4,0.7,0.9,0.7,1.5c0,0.9-0.5,1.6-1.4,2.1
			c-1.6,0.7-3.2,1.1-5,1.1C285.7,111.9,282.8,109.3,282.8,104z"/>
	</g>
</g>
</svg>
