<?xml version="1.0" encoding="iso-8859-1"?>
<!-- Generator: Adobe Illustrator 19.0.0, SVG Export Plug-In . SVG Version: 6.00 Build 0)  -->
<svg version="1.1" id="Capa_1" xmlns="http://www.w3.org/2000/svg" xmlns:xlink="http://www.w3.org/1999/xlink" x="0px" y="0px"
	 viewBox="0 0 512 512" style="enable-background:new 0 0 512 512;" xml:space="preserve">
<g>
	<g>
		<path d="M256,0C114.837,0,0,114.837,0,256s114.837,256,256,256s256-114.837,256-256S397.163,0,256,0z M256,469.333
			c-117.632,0-213.333-95.701-213.333-213.333S138.368,42.667,256,42.667S469.333,138.368,469.333,256S373.632,469.333,256,469.333z
			"/>
	</g>
</g>
<g>
	<g>
		<g>
			<path d="M250.667,344.96c-13.931,0.235-25.152,11.456-25.387,25.387c-0.021,0.427-0.021,0.875,0,1.301
				c0.491,14.016,12.224,24.981,26.24,24.512h-0.853c14.08-0.235,25.387-11.712,25.387-25.813
				C275.712,356.459,264.555,345.301,250.667,344.96z"/>
			<path d="M255.573,116.693c-30.08-0.896-59.136,10.965-80,32.64c-2.411,3.029-3.691,6.805-3.627,10.667
				c0.107,9.451,7.616,17.152,17.067,17.493c4.395,0.021,8.64-1.579,11.947-4.48c13.227-13.717,31.509-21.419,50.56-21.333
				c28.8,0,42.667,15.573,42.667,33.92c0,39.253-69.76,44.16-69.76,95.147c0,12.373,7.68,35.2,23.68,35.2c0.128,0,0.277,0,0.427,0
				c8.597,0,15.573-6.976,15.573-15.573c0-5.76-4.053-10.667-4.053-16.427c0-38.4,75.093-43.733,76.8-103.253
				C336.853,144.427,306.133,116.693,255.573,116.693z"/>
		</g>
	</g>
</g>
<g>
</g>
<g>
</g>
<g>
</g>
<g>
</g>
<g>
</g>
<g>
</g>
<g>
</g>
<g>
</g>
<g>
</g>
<g>
</g>
<g>
</g>
<g>
</g>
<g>
</g>
<g>
</g>
<g>
</g>
</svg>
